<?xml version="1.0" encoding="utf-8"?>
<!-- Generator: Adobe Illustrator 24.3.0, SVG Export Plug-In . SVG Version: 6.00 Build 0)  -->
<svg version="1.1" id="Layer_1" xmlns="http://www.w3.org/2000/svg" xmlns:xlink="http://www.w3.org/1999/xlink" x="0px" y="0px"
	 viewBox="0 0 512 512" style="enable-background:new 0 0 512 512;" xml:space="preserve">
<g id="XMLID_1_">
	<path id="XMLID_5_" d="M28.19,254.03c-0.14,16.96,12.34,27.06,32.11,22.43v-44.87C40.25,225.56,28.33,237.9,28.19,254.03
		 M60.86,166.82h27.2v128.99c-26.08,4.21-51.17,7.01-69.12-3.08c-22.99-12.9-24.96-53.84-6.73-72.07c9.25-9.25,27.9-15.7,47.81-11.5
		v-40.52C60.3,167.8,60.16,166.96,60.86,166.82"/>
	<rect id="XMLID_6_" x="105.16" y="166.82" width="27.2" height="28.46"/>
	<path id="XMLID_9_" d="M459.46,277.72c29.72,11.5,32.95-53.14,3.08-47.25C443.9,234.12,444.46,271.83,459.46,277.72 M460.72,208.04
		c22.71-2.38,39.82,7.57,46.69,22.99c11.64,26.36-0.7,56.5-19.35,65.48c-9.67,4.63-19.91,5.05-29.02,4.21
		c-28.46-2.52-46.27-31.41-36.31-63.65c1.54-5.05,3.36-8.13,4.21-9.67C432.96,216.87,443.34,209.86,460.72,208.04"/>
	<path id="XMLID_12_" d="M169.94,267.35c-7.57,12.62,11.36,15.7,23.55,12.06v-18.79C184.24,262.02,173.44,261.46,169.94,267.35
		 M217.75,297.07c-22.57,1.26-56.78,8.97-69.12-6.03c-7.29-8.83-6.45-25.66,0-33.93c8.41-10.66,26.5-13.04,43.04-14.58
		c1.54-3.65,0.42-9.67-1.26-12.06c-15-3.79-30,2.1-40.52,6.73v-21.17c15.98-7.29,53.14-15.14,64.21,1.82
		c5.89,8.83,3.65,24.4,3.65,38.14L217.75,297.07L217.75,297.07z"/>
	<path id="XMLID_13_" d="M313.51,298.33h-27.2v-35.19c0-11.64,1.82-26.22-4.21-30.85c-4.77-3.65-16.12-1.82-22.99,0v66.04h-27.2
		v-84.26c27.9-7.29,78.09-15,81.74,20.05C315.33,251.36,312.25,277.16,313.51,298.33"/>
	<path id="XMLID_16_" d="M354.17,269.17c4.63,7.43,16.96,10.23,27.2,5.47c-0.56-14.16-0.7-28.74-0.56-43.6
		C357.25,224.86,343.09,251.5,354.17,269.17 M422.59,211.68c-2.38,7.29-6.03,13.46-9.11,20.05c-2.8,0.56-5.19-1.12-6.73,0
		c-0.56,29.58,6.31,69.54-5.47,90.85c-7.01,12.76-20.05,21.03-39.96,22.43c-14.44,0.98-25.8-1.4-36.31-5.47v-25.38
		c12.48,7.29,43.88,13.18,52.72-1.82c2.66-4.35,2.38-8.97,3.65-15.7c-5.75,0.28-11.22,2.94-18.23,3.08
		c-28.6,0.42-46.27-22.43-39.4-53.98c2.66-12.2,9.81-22.01,19.35-27.9C363.14,205.65,393.7,206.5,422.59,211.68"/>
	<path id="XMLID_17_" d="M132.36,209.72c0,20.05,0,34.49,0,58.89c-1.12,23.98-0.84,43.04-9.67,54.54c-1.68,2.24-5.47,5.61-8.41,7.85
		c-2.52,1.96-7.57,5.89-10.23,6.03c-2.8,0.14-10.09-3.93-13.32-5.47c-4.35-1.96-8.27-4.77-12.76-6.03
		c10.38-6.45,20.19-11.22,24.26-24.26c3.51-11.36,3.08-27.62,3.08-43.6c0-15.7,0.14-34.07,0.14-47.95L132.36,209.72L132.36,209.72z"
		/>
</g>
</svg>
